<svg width="105" height="86" viewBox="0 0 105 86" fill="none" xmlns="http://www.w3.org/2000/svg">
<path d="M101.081 26.0254C96.3551 19.5934 99.3763 20.8183 96.6333 14.4023C90.3353 -0.337656 75.8251 1.11618 62.7861 0.53418C62.8981 5.32918 64.3693 8.73025 67.3843 11.5312C56.6923 11.3713 46.0053 23.6031 54.3403 39.0161C54.9713 40.2831 55.6281 41.3741 56.3291 42.3691C59.6761 47.1321 62.3063 51.3502 65.1133 56.4512C65.8833 57.8522 66.7013 59.3274 67.5723 60.8784C69.5293 64.3584 69.5073 66.791 68.5083 68.165C68.1333 68.673 67.5721 69.111 66.8931 69.459C66.1501 69.838 65.3641 70.052 64.6211 70.084C63.1401 70.148 61.6591 69.48 60.9321 67.897L53.5542 51.7573C52.6452 49.7793 51.2071 48.26 49.4961 47.272C47.9241 46.358 46.1282 45.9034 44.3052 45.9414C42.4822 45.9034 40.6863 46.358 39.1143 47.272C37.3983 48.261 35.9602 49.7793 35.0562 51.7573L27.6733 67.897C26.9513 69.485 25.4654 70.148 23.9844 70.084C23.2414 70.052 22.4603 69.838 21.7173 69.459C21.0383 69.111 20.471 68.673 20.103 68.165C19.098 66.791 19.0762 64.3584 21.0332 60.8784C26.1332 51.8114 30.6082 42.4612 34.0352 34.7832C36.1152 30.1372 36.2222 25.389 34.3672 20.647C32.5122 15.91 29.2083 12.5001 24.5303 10.4951L0.00195312 0C0.00195312 0 0.85207 11.4622 8.49707 17.4072C12.6571 20.6472 15.3084 22.6254 16.8584 23.7534C18.0614 24.6294 19.0661 25.8811 18.8311 27.3511L18.6284 28.623L7.01025 21.5503C7.01025 21.5503 6.4973 29.7782 9.1333 33.4932C11.7693 37.2082 12.9564 37.668 14.6724 38.877C12.3204 43.742 10.0801 48.0623 7.2251 53.1353C1.7031 62.9513 2.97014 71.4571 7.34814 77.4551C9.27814 80.1011 11.7752 82.1712 14.5342 83.5771C17.2282 84.9511 20.2702 85.743 23.3662 85.876C30.7762 86.191 38.2714 82.7164 42.0464 74.4624L44.3071 69.5171L46.5693 74.4624C50.3383 82.7164 57.8332 86.191 65.2432 85.876C68.3382 85.743 71.3802 84.9511 74.0752 83.5771C76.8392 82.1712 79.3301 80.1021 81.2651 77.4551C85.6391 71.4571 86.9052 62.9513 81.3882 53.1353C78.8912 48.6973 76.8764 44.9932 75.2563 41.9082C78.3303 42.9722 81.64 43.5654 84.938 43.4854C88.916 43.3834 92.8882 42.2981 96.4492 39.8711C99.6032 37.7171 102.437 34.3061 104.42 29.3071C103 28.2551 101.915 27.1534 101.081 26.0254ZM89.731 23.3521C86.641 23.1011 83.6682 21.946 81.7012 20.876C80.1722 20.047 79.1834 18.556 79.5474 16.855C80.8084 10.922 92.409 12.5151 89.731 23.3521ZM98.3174 28.249C97.8844 28.848 96.8584 28.8534 96.0244 28.2544C95.1904 27.6554 94.8644 26.682 95.2974 26.084C95.7304 25.48 96.7563 25.4801 97.5903 26.0791C98.4193 26.6781 98.7454 27.645 98.3174 28.249Z" fill="url(#paint0_linear_365_24277)"/>
<defs>
<linearGradient id="paint0_linear_365_24277" x1="52.2085" y1="2.2879" x2="52.2085" y2="85.8943" gradientUnits="userSpaceOnUse">
<stop stop-color="#96FFBB"/>
<stop offset="0.4784" stop-color="#03D7A9"/>
<stop offset="1" stop-color="#006861"/>
</linearGradient>
</defs>
</svg>
