<svg width="22" height="22" viewBox="0 0 22 22" fill="none" xmlns="http://www.w3.org/2000/svg">
<g id="elements">
<path id="Vector" d="M11.4014 7.29796L14.3213 6.32465C15.2075 6.02924 15.6507 5.88153 15.8846 6.11544C16.1185 6.34935 15.9708 6.79247 15.6753 7.67871L14.702 10.5986C14.1986 12.1088 13.9469 12.8639 13.4054 13.4054C12.8639 13.9469 12.1088 14.1986 10.5986 14.702L7.67871 15.6753C6.79247 15.9708 6.34935 16.1185 6.11544 15.8846C5.88153 15.6507 6.02924 15.2075 6.32465 14.3213L7.29796 11.4014C7.80136 9.89118 8.05306 9.13608 8.59457 8.59457C9.13608 8.05306 9.89118 7.80136 11.4014 7.29796Z" stroke="white" stroke-opacity="0.64" stroke-width="1.5" stroke-linecap="round" stroke-linejoin="round"/>
<path id="Vector_2" d="M11 11L10.9936 11.0064" stroke="white" stroke-opacity="0.64" stroke-width="2" stroke-linecap="round" stroke-linejoin="round"/>
<path id="Rectangle 116" d="M1.5 11C1.5 6.52166 1.5 4.28249 2.89124 2.89124C4.28249 1.5 6.52166 1.5 11 1.5C15.4783 1.5 17.7175 1.5 19.1088 2.89124C20.5 4.28249 20.5 6.52166 20.5 11C20.5 15.4783 20.5 17.7175 19.1088 19.1088C17.7175 20.5 15.4783 20.5 11 20.5C6.52166 20.5 4.28249 20.5 2.89124 19.1088C1.5 17.7175 1.5 15.4783 1.5 11Z" stroke="white" stroke-opacity="0.64" stroke-width="1.5" stroke-linecap="round" stroke-linejoin="round"/>
</g>
</svg>
