<svg width="72" height="30" viewBox="0 0 72 30" fill="none" xmlns="http://www.w3.org/2000/svg">
<g id="MainLogo">
<g id="Group">
<path id="Vector" d="M30.6681 7.89615C29.2342 5.94467 30.1509 6.31633 29.3186 4.3697C27.4078 -0.102445 23.0054 0.338651 19.0493 0.162071C19.0833 1.61688 19.5297 2.64877 20.4444 3.4986C17.2004 3.45006 13.958 7.16123 16.4869 11.8376C16.6783 12.222 16.8776 12.553 17.0903 12.8549C18.1057 14.3 18.9037 15.5797 19.7554 17.1274C19.989 17.5525 20.2372 18.0001 20.5015 18.4706C21.0952 19.5265 21.0885 20.2645 20.7854 20.6814C20.6717 20.8355 20.5014 20.9684 20.2954 21.074C20.07 21.189 19.8315 21.2539 19.6061 21.2636C19.1567 21.283 18.7074 21.0804 18.4868 20.6001L16.2483 15.7033C15.9726 15.1031 15.5362 14.6422 15.0171 14.3424C14.5402 14.0651 13.9953 13.9272 13.4422 13.9387C12.8891 13.9272 12.3442 14.0651 11.8672 14.3424C11.3466 14.6425 10.9103 15.1031 10.636 15.7033L8.39604 20.6001C8.17698 21.0819 7.72614 21.283 7.2768 21.2636C7.05137 21.2539 6.81439 21.189 6.58896 21.074C6.38295 20.9684 6.21085 20.8355 6.09919 20.6814C5.79427 20.2645 5.78765 19.5265 6.38141 18.4706C7.92876 15.7197 9.28647 12.8828 10.3262 10.5533C10.9573 9.14369 10.9898 7.70306 10.427 6.26433C9.86416 4.82712 8.86174 3.79256 7.44243 3.18424L0.000488281 0C0.000488281 0 0.258415 3.47766 2.57792 5.28139C3.84008 6.26441 4.64449 6.8646 5.11477 7.20683C5.47976 7.47261 5.78457 7.85237 5.71327 8.29837L5.65179 8.68429L2.12682 6.5384C2.12682 6.5384 1.97119 9.03475 2.77096 10.1619C3.57072 11.289 3.93088 11.4285 4.45152 11.7953C3.73792 13.2714 3.05822 14.5822 2.192 16.1213C0.516619 19.0995 0.901043 21.6802 2.22934 23.5C2.8149 24.3028 3.57251 24.9309 4.40959 25.3575C5.22696 25.7743 6.14992 26.0146 7.08925 26.0549C9.33746 26.1505 11.6115 25.0963 12.7569 22.592L13.4428 21.0916L14.1291 22.592C15.2726 25.0963 17.5466 26.1505 19.7948 26.0549C20.7338 26.0146 21.6568 25.7743 22.4745 25.3575C23.3131 24.9309 24.0688 24.3031 24.6559 23.5C25.983 21.6802 26.3671 19.0995 24.6932 16.1213C23.9356 14.7748 23.3243 13.651 22.8328 12.715C23.7655 13.0379 24.7696 13.2178 25.7702 13.1935C26.9772 13.1626 28.1824 12.8333 29.2628 12.097C30.2197 11.4434 31.0796 10.4085 31.6813 8.89184C31.2504 8.57266 30.9211 8.23839 30.6681 7.89615ZM27.2244 7.08506C26.2869 7.0089 25.385 6.65845 24.7882 6.33381C24.3243 6.08229 24.0243 5.62992 24.1347 5.11383C24.5173 3.31375 28.037 3.79709 27.2244 7.08506ZM29.8296 8.57081C29.6982 8.75255 29.3869 8.75418 29.1339 8.57244C28.8809 8.3907 28.7819 8.09537 28.9133 7.91393C29.0447 7.73068 29.356 7.73071 29.609 7.91245C29.8605 8.09419 29.9594 8.38755 29.8296 8.57081Z" fill="url(#paint0_linear_434_14308)"/>
</g>
<g id="Group_2">
<path id="Vector_2" d="M29.8896 24.9392V13.5361C31.9076 12.9424 33.163 10.6505 33.6008 9.59619V16.2042H33.2878C33.6349 15.5246 34.1282 15.0054 34.7672 14.652C35.4062 14.2967 36.1361 14.1201 36.9568 14.1201C38.1928 14.1201 39.1174 14.4882 39.729 15.2248C40.3407 15.963 40.6456 17.0804 40.6456 18.5825V24.9395H36.9359V18.7479C36.9359 18.1089 36.8205 17.6497 36.592 17.3723C36.3618 17.0947 36.0177 16.9555 35.5605 16.9555C34.9619 16.9555 34.4868 17.1436 34.1315 17.5183C33.7777 17.893 33.6008 18.3878 33.6008 18.9991V24.9392H29.8896ZM48.464 25.1694C46.5468 25.1694 45.0561 24.6764 43.9918 23.6885C42.9296 22.7022 42.3974 21.3478 42.3974 19.6236C42.3974 18.5532 42.6194 17.6026 43.0639 16.767C43.5099 15.9333 44.1346 15.2843 44.9408 14.8189C45.7469 14.3535 46.6927 14.1198 47.7761 14.1198C48.8465 14.1198 49.7388 14.3535 50.4539 14.8189C51.1708 15.2843 51.7094 15.9236 52.0695 16.7361C52.4312 17.5486 52.6129 18.4912 52.6129 19.5616V20.3532H45.5033V18.6014H49.8811L49.5262 18.8932C49.5262 18.1016 49.3769 17.5147 49.0783 17.1318C48.7798 16.7507 48.3595 16.5592 47.8179 16.5592C47.192 16.5592 46.7166 16.7912 46.3889 17.2566C46.0627 17.7224 45.899 18.4215 45.899 19.3526V19.7273C45.899 20.6584 46.1293 21.3396 46.5868 21.7711C47.0459 22.201 47.706 22.4164 48.5674 22.4164C49.1235 22.4164 49.6478 22.3547 50.1423 22.2297C50.6353 22.1032 51.1042 21.9022 51.5487 21.6249L52.5073 24.0432C51.9803 24.4048 51.3687 24.6822 50.673 24.877C49.9788 25.0723 49.2425 25.1694 48.464 25.1694ZM54.3842 24.9392V9.59619H58.0954V24.9392H54.3842ZM60.3876 29.4419L60.2223 14.3505H63.807L64.0372 16.2254H63.8281C64.0229 15.6007 64.4541 15.0932 65.121 14.704C65.7876 14.3147 66.5306 14.1198 67.3513 14.1198C68.2694 14.1198 69.074 14.3389 69.7697 14.7767C70.4639 15.2145 71.0088 15.8474 71.4065 16.6744C71.8022 17.5 72.0003 18.4912 72.0003 19.6445C72.0003 20.7849 71.8025 21.7711 71.4065 22.6048C71.0091 23.4386 70.4642 24.0741 69.7697 24.5122C69.074 24.95 68.2694 25.1691 67.3513 25.1691C66.5452 25.1691 65.8152 24.9844 65.1632 24.6161C64.5094 24.248 64.0779 23.758 63.8704 23.1466H64.0991V29.4419H60.3876ZM66.162 22.417C66.8028 22.417 67.3122 22.1979 67.6947 21.7616C68.0776 21.3238 68.2691 20.6181 68.2691 19.6448C68.2691 18.6714 68.0776 17.9661 67.6947 17.5298C67.3119 17.092 66.8028 16.8727 66.162 16.8727C65.5376 16.8727 65.03 17.0917 64.6404 17.5298C64.2512 17.9661 64.0567 18.6717 64.0567 19.6448C64.0567 20.6181 64.2512 21.3238 64.6404 21.7616C65.03 22.1979 65.5376 22.417 66.162 22.417Z" fill="white"/>
</g>
</g>
<defs>
<linearGradient id="paint0_linear_434_14308" x1="15.8401" y1="0.694153" x2="15.8401" y2="26.0605" gradientUnits="userSpaceOnUse">
<stop stop-color="#96FFBB"/>
<stop offset="0.4784" stop-color="#03D7A9"/>
<stop offset="1" stop-color="#006861"/>
</linearGradient>
</defs>
</svg>
