<svg width="18" height="22" viewBox="0 0 18 22" fill="none" xmlns="http://www.w3.org/2000/svg">
<g id="elements">
<path id="Rectangle 1878" d="M4 4L4 1M4 18L4 21" stroke="white" stroke-opacity="0.64" stroke-width="1.5" stroke-linecap="round" stroke-linejoin="round"/>
<path id="Vector" d="M14 7.00232C14.8439 7.00232 15.8179 6.91895 16.299 7.75232C16.5 8.10039 16.5 8.5677 16.5 9.50232V12.5023C16.5 13.4369 16.5 13.9042 16.299 14.2523C15.8179 15.0857 14.8439 15.0023 14 15.0023C13.1561 15.0023 12.1821 15.0857 11.701 14.2523C11.5 13.9042 11.5 13.4369 11.5 12.5023L11.5 9.50232C11.5 8.5677 11.5 8.10039 11.701 7.75232C12.1821 6.91895 13.1561 7.00232 14 7.00232Z" stroke="white" stroke-opacity="0.64" stroke-width="1.5" stroke-linecap="round" stroke-linejoin="round"/>
<path id="Vector_2" d="M4 4.00232C4.84389 4.00232 5.81789 3.91895 6.29904 4.75232C6.5 5.10039 6.5 5.5677 6.5 6.50232L6.5 15.5023C6.5 16.4369 6.5 16.9042 6.29904 17.2523C5.81789 18.0857 4.84389 18.0023 4 18.0023C3.15611 18.0023 2.18211 18.0857 1.70096 17.2523C1.5 16.9042 1.5 16.4369 1.5 15.5023L1.5 6.50232C1.5 5.5677 1.5 5.10039 1.70096 4.75232C2.18211 3.91895 3.15611 4.00232 4 4.00232Z" stroke="white" stroke-opacity="0.64" stroke-width="1.5" stroke-linecap="round" stroke-linejoin="round"/>
<path id="Rectangle 1879" d="M14 7V1M14 15V21" stroke="white" stroke-opacity="0.64" stroke-width="1.5" stroke-linecap="round" stroke-linejoin="round"/>
</g>
</svg>
