<svg width="22" height="20" viewBox="0 0 22 20" fill="none" xmlns="http://www.w3.org/2000/svg">
<g id="elements">
<path id="Ellipse 1574" d="M15.002 11.5C15.002 12.3284 15.6735 13 16.502 13C17.3304 13 18.002 12.3284 18.002 11.5C18.002 10.6716 17.3304 10 16.502 10C15.6735 10 15.002 10.6716 15.002 11.5Z" stroke="#141B34" stroke-width="1.5"/>
<path id="Vector" d="M1.00195 9C1.00195 5.22876 1.00195 3.34315 2.17353 2.17157C3.3451 1 5.23072 1 9.00195 1H13.002C13.9319 1 14.3969 1 14.7784 1.10222C15.8137 1.37962 16.6223 2.18827 16.8997 3.22354C17.002 3.60504 17.002 4.07003 17.002 5M9.00195 5H15.002C17.8304 5 19.2446 5 20.1233 5.87868C21.002 6.75736 21.002 8.17157 21.002 11V13C21.002 15.8284 21.002 17.2426 20.1233 18.1213C19.2446 19 17.8304 19 15.002 19H11.5005" stroke="#141B34" stroke-width="1.5" stroke-linecap="round"/>
<path id="Vector_2" d="M9 15H5M5 15H1M5 15V19M5 15L5 11" stroke="#141B34" stroke-width="1.5" stroke-linecap="round"/>
</g>
</svg>
