<svg width="18" height="18" viewBox="0 0 18 18" fill="none" xmlns="http://www.w3.org/2000/svg">
<g id="elements">
<path id="Subtract" fill-rule="evenodd" clip-rule="evenodd" d="M9.04732 0.458496H9.04733C10.8729 0.458485 12.3068 0.458477 13.4263 0.608991C14.5735 0.76323 15.4838 1.08576 16.1989 1.80092C16.9141 2.51609 17.2366 3.4263 17.3908 4.57352C17.5414 5.69302 17.5414 7.1269 17.5413 8.95246V8.95248V8.9525V8.95252V9.0478V9.04782V9.04784V9.04786C17.5414 10.8734 17.5414 12.3073 17.3908 13.4268C17.2366 14.574 16.9141 15.4842 16.1989 16.1994C15.4838 16.9146 14.5735 17.2371 13.4263 17.3913C12.3068 17.5419 10.8729 17.5418 9.04737 17.5418H9.04735H9.04733H9.04731H8.95204H8.95202H8.952H8.95198C7.12641 17.5418 5.69253 17.5419 4.57303 17.3913C3.42581 17.2371 2.5156 16.9146 1.80044 16.1994C1.08527 15.4842 0.762742 14.574 0.608503 13.4268C0.457988 12.3073 0.457997 10.8734 0.458008 9.04782V9.04781V8.95252V8.95251C0.457997 7.12692 0.457988 5.69303 0.608503 4.57352C0.762742 3.4263 1.08527 2.51609 1.80044 1.80092C2.5156 1.08576 3.42581 0.76323 4.57303 0.608991C5.69254 0.458477 7.12644 0.458485 8.95202 0.458496H8.95203H9.04732ZM8.73458 7.77288C8.94045 7.80056 9.22523 7.87465 9.46689 8.11631C9.70855 8.35797 9.78264 8.64275 9.81032 8.84862C9.83325 9.01917 9.83313 9.21748 9.83302 9.38404L9.83301 9.41686V12.7502C9.83301 13.2104 9.45991 13.5835 8.99967 13.5835C8.53944 13.5835 8.16634 13.2104 8.16634 12.7502V9.41686C7.7061 9.41686 7.33301 9.04376 7.33301 8.58352C7.33301 8.12329 7.7061 7.75019 8.16634 7.75019L8.19916 7.75018C8.36572 7.75007 8.56403 7.74995 8.73458 7.77288ZM8.99588 4.41683C8.5377 4.41683 8.16627 4.78993 8.16627 5.25016C8.16627 5.7104 8.5377 6.0835 8.99588 6.0835H9.00333C9.46151 6.0835 9.83294 5.7104 9.83294 5.25016C9.83294 4.78993 9.46151 4.41683 9.00333 4.41683H8.99588Z" fill="#FFF171"/>
</g>
</svg>
