<svg width="22" height="22" viewBox="0 0 22 22" fill="none" xmlns="http://www.w3.org/2000/svg">
<g id="elements">
<path id="Ellipse 1201" d="M14.5 11C14.5 12.933 12.933 14.5 11 14.5C9.067 14.5 7.5 12.933 7.5 11C7.5 9.067 9.067 7.5 11 7.5C12.933 7.5 14.5 9.067 14.5 11Z" stroke="white" stroke-opacity="0.76" stroke-width="1.5"/>
<path id="Vector" d="M20.011 13.0965C20.5329 12.9558 20.7939 12.8854 20.8969 12.7508C21 12.6163 21 12.3998 21 11.9669V10.0332C21 9.60029 21 9.38382 20.8969 9.24926C20.7938 9.11471 20.5329 9.04433 20.011 8.90358C18.0606 8.37759 16.8399 6.33851 17.3433 4.40087C17.4817 3.86799 17.5509 3.60156 17.4848 3.44529C17.4187 3.28902 17.2291 3.18134 16.8497 2.96596L15.125 1.98673C14.7528 1.77539 14.5667 1.66972 14.3997 1.69222C14.2326 1.71472 14.0442 1.90273 13.6672 2.27873C12.208 3.73448 9.79358 3.73442 8.33434 2.27864C7.95743 1.90263 7.76898 1.71463 7.60193 1.69212C7.43489 1.66962 7.24877 1.77529 6.87653 1.98663L5.15184 2.96587C4.77253 3.18123 4.58287 3.28891 4.51678 3.44515C4.45068 3.6014 4.51987 3.86787 4.65825 4.4008C5.16137 6.3385 3.93972 8.37763 1.98902 8.9036C1.46712 9.04432 1.20617 9.11468 1.10308 9.24924C1 9.3838 1 9.60028 1 10.0332L1 11.9669C1 12.3998 1 12.6163 1.10308 12.7508C1.20615 12.8854 1.46711 12.9558 1.98902 13.0965C3.9394 13.6225 5.16008 15.6616 4.65672 17.5992C4.51829 18.1321 4.44907 18.3985 4.51516 18.5548C4.58126 18.7111 4.77092 18.8188 5.15025 19.0341L6.87495 20.0134C7.24721 20.2247 7.43334 20.3304 7.6004 20.3079C7.76746 20.2854 7.95588 20.0973 8.33271 19.7213C9.79274 18.2644 12.2088 18.2643 13.6689 19.7212C14.0457 20.0973 14.2341 20.2853 14.4012 20.3078C14.5682 20.3303 14.7544 20.2246 15.1266 20.0133L16.8513 19.034C17.2307 18.8187 17.4204 18.711 17.4864 18.5547C17.5525 18.3984 17.4833 18.132 17.3448 17.5991C16.8412 15.6616 18.0609 13.6226 20.011 13.0965Z" stroke="white" stroke-opacity="0.76" stroke-width="1.5" stroke-linecap="round"/>
</g>
</svg>
